<svg width="80" height="80" viewBox="0 0 80 80" fill="none" xmlns="http://www.w3.org/2000/svg">
<path d="M40 16.6662C40.004 15.333 39.7412 14.0124 39.2273 12.7822C38.7134 11.552 37.9587 10.4369 37.0076 9.50267C36.0564 8.5684 34.9281 7.83376 33.6889 7.34195C32.4497 6.85015 31.1246 6.61111 29.7917 6.63889C28.4587 6.66667 27.1448 6.96072 25.9272 7.50374C24.7095 8.04675 23.6127 8.82777 22.7014 9.80086C21.79 10.774 21.0824 11.9195 20.6202 13.17C20.158 14.4206 19.9505 15.7509 20.01 17.0828C18.0507 17.5866 16.2317 18.5297 14.6908 19.8406C13.1499 21.1514 11.9275 22.7958 11.1162 24.649C10.3049 26.5023 9.92589 28.5158 10.008 30.5372C10.0901 32.5586 10.6311 34.5348 11.59 36.3162C9.90396 37.686 8.57811 39.4469 7.72782 41.446C6.87753 43.445 6.52855 45.6215 6.71124 47.7861C6.89392 49.9508 7.60275 52.038 8.77604 53.8663C9.94934 55.6945 11.5516 57.2084 13.4434 58.2762C13.2097 60.0836 13.3492 61.9198 13.853 63.6713C14.3568 65.4227 15.2143 67.0523 16.3726 68.4594C17.5309 69.8664 18.9654 71.0211 20.5874 71.8521C22.2095 72.683 23.9846 73.1726 25.8033 73.2906C27.6219 73.4086 29.4455 73.1526 31.1613 72.5382C32.8771 71.9239 34.4488 70.9643 35.7792 69.7187C37.1097 68.4732 38.1706 66.9681 38.8966 65.2964C39.6225 63.6247 39.9981 61.822 40 59.9995V16.6662Z" stroke="#1F6F78" stroke-width="6.66667" stroke-linecap="round" stroke-linejoin="round"/>
<path d="M40 16.6662C39.9961 15.333 40.2588 14.0124 40.7727 12.7822C41.2866 11.552 42.0413 10.4369 42.9924 9.50267C43.9436 8.5684 45.0719 7.83376 46.3111 7.34195C47.5503 6.85015 48.8754 6.61111 50.2083 6.63889C51.5413 6.66667 52.8552 6.96072 54.0729 7.50374C55.2905 8.04675 56.3873 8.82777 57.2986 9.80086C58.21 10.774 58.9176 11.9195 59.3798 13.17C59.842 14.4206 60.0495 15.7509 59.99 17.0828C61.9493 17.5866 63.7683 18.5297 65.3092 19.8406C66.8501 21.1514 68.0725 22.7958 68.8838 24.649C69.6952 26.5023 70.0741 28.5158 69.992 30.5372C69.9099 32.5586 69.3689 34.5348 68.41 36.3162C70.0961 37.686 71.4219 39.4469 72.2722 41.446C73.1225 43.445 73.4715 45.6215 73.2888 47.7861C73.1061 49.9508 72.3973 52.038 71.224 53.8663C70.0507 55.6945 68.4484 57.2084 66.5566 58.2762C66.7903 60.0836 66.6508 61.9198 66.147 63.6713C65.6432 65.4227 64.7857 67.0523 63.6274 68.4594C62.4691 69.8664 61.0346 71.0211 59.4126 71.8521C57.7906 72.683 56.0154 73.1726 54.1967 73.2906C52.3781 73.4086 50.5545 73.1526 48.8387 72.5382C47.1229 71.9239 45.5512 70.9643 44.2208 69.7187C42.8904 68.4732 41.8294 66.9681 41.1034 65.2964C40.3775 63.6247 40.0019 61.822 40 59.9995V16.6662Z" stroke="#1F6F78" stroke-width="6.66667" stroke-linecap="round" stroke-linejoin="round"/>
<path d="M50 43.3333C47.2015 42.3489 44.7577 40.5567 42.9778 38.1834C41.1978 35.81 40.1615 32.9622 40 30C39.8385 32.9622 38.8022 35.81 37.0222 38.1834C35.2423 40.5567 32.7985 42.3489 30 43.3333" stroke="#1F6F78" stroke-width="6.66667" stroke-linecap="round" stroke-linejoin="round"/>
<path d="M58.6633 21.6663C59.4701 20.2683 59.9264 18.6957 59.9933 17.083" stroke="#1F6F78" stroke-width="6.66667" stroke-linecap="round" stroke-linejoin="round"/>
<path d="M20.01 17.083C20.0759 18.6955 20.5311 20.268 21.3367 21.6663" stroke="#1F6F78" stroke-width="6.66667" stroke-linecap="round" stroke-linejoin="round"/>
<path d="M11.59 36.32C12.1998 35.8234 12.8524 35.3816 13.54 35" stroke="#1F6F78" stroke-width="6.66667" stroke-linecap="round" stroke-linejoin="round"/>
<path d="M66.46 35C67.1477 35.3816 67.8002 35.8234 68.41 36.32" stroke="#1F6F78" stroke-width="6.66667" stroke-linecap="round" stroke-linejoin="round"/>
<path d="M20 60.0003C17.7028 60.0013 15.4442 59.4089 13.4434 58.2803" stroke="#1F6F78" stroke-width="6.66667" stroke-linecap="round" stroke-linejoin="round"/>
<path d="M66.5567 58.2803C64.5558 59.4089 62.2972 60.0013 60 60.0003" stroke="#1F6F78" stroke-width="6.66667" stroke-linecap="round" stroke-linejoin="round"/>
</svg>
