<svg width="80" height="80" viewBox="0 0 80 80" fill="none" xmlns="http://www.w3.org/2000/svg">
<path d="M53.3333 70V63.3333C53.3333 59.7971 51.9285 56.4057 49.428 53.9052C46.9276 51.4048 43.5362 50 40 50H20C16.4637 50 13.0724 51.4048 10.5719 53.9052C8.07138 56.4057 6.66663 59.7971 6.66663 63.3333V70" stroke="#1F6F78" stroke-width="6.66667" stroke-linecap="round" stroke-linejoin="round"/>
<path d="M30 36.6667C37.3638 36.6667 43.3333 30.6971 43.3333 23.3333C43.3333 15.9695 37.3638 10 30 10C22.6362 10 16.6666 15.9695 16.6666 23.3333C16.6666 30.6971 22.6362 36.6667 30 36.6667Z" stroke="#1F6F78" stroke-width="6.66667" stroke-linecap="round" stroke-linejoin="round"/>
<path d="M73.3334 70.0003V63.3336C73.3312 60.3794 72.3479 57.5095 70.5379 55.1746C68.728 52.8398 66.1938 51.1722 63.3334 50.4336" stroke="#1F6F78" stroke-width="6.66667" stroke-linecap="round" stroke-linejoin="round"/>
<path d="M53.3334 10.4336C56.2014 11.1679 58.7435 12.8359 60.5588 15.1746C62.3742 17.5133 63.3595 20.3897 63.3595 23.3503C63.3595 26.3108 62.3742 29.1872 60.5588 31.5259C58.7435 33.8646 56.2014 35.5326 53.3334 36.2669" stroke="#1F6F78" stroke-width="6.66667" stroke-linecap="round" stroke-linejoin="round"/>
</svg>
