<svg width="80" height="80" viewBox="0 0 80 80" fill="none" xmlns="http://www.w3.org/2000/svg">
<path d="M40 73.3337C58.4095 73.3337 73.3334 58.4098 73.3334 40.0003C73.3334 21.5908 58.4095 6.66699 40 6.66699C21.5905 6.66699 6.66669 21.5908 6.66669 40.0003C6.66669 58.4098 21.5905 73.3337 40 73.3337Z" stroke="#1F6F78" stroke-width="6.66667" stroke-linecap="round" stroke-linejoin="round"/>
<path d="M40 60C51.0457 60 60 51.0457 60 40C60 28.9543 51.0457 20 40 20C28.9543 20 20 28.9543 20 40C20 51.0457 28.9543 60 40 60Z" stroke="#1F6F78" stroke-width="6.66667" stroke-linecap="round" stroke-linejoin="round"/>
<path d="M40 46.6663C43.6819 46.6663 46.6666 43.6816 46.6666 39.9997C46.6666 36.3178 43.6819 33.333 40 33.333C36.3181 33.333 33.3333 36.3178 33.3333 39.9997C33.3333 43.6816 36.3181 46.6663 40 46.6663Z" stroke="#1F6F78" stroke-width="6.66667" stroke-linecap="round" stroke-linejoin="round"/>
</svg>
