<svg width="29" height="29" viewBox="0 0 29 29" fill="none" xmlns="http://www.w3.org/2000/svg">
<path d="M13.6685 2.72281C13.7205 2.6178 13.8008 2.5294 13.9003 2.4676C13.9999 2.4058 14.1147 2.37305 14.2319 2.37305C14.3491 2.37305 14.4639 2.4058 14.5635 2.4676C14.663 2.5294 14.7433 2.6178 14.7953 2.72281L17.5351 8.2724C17.7156 8.63767 17.982 8.95368 18.3115 9.19332C18.641 9.43296 19.0238 9.58906 19.4269 9.64823L25.5541 10.5449C25.6702 10.5617 25.7792 10.6107 25.869 10.6863C25.9587 10.7619 26.0254 10.861 26.0617 10.9726C26.098 11.0842 26.1023 11.2036 26.0743 11.3175C26.0462 11.4314 25.9868 11.5352 25.9028 11.6171L21.4716 15.932C21.1794 16.2168 20.9608 16.5683 20.8345 16.9563C20.7083 17.3443 20.6782 17.7572 20.747 18.1594L21.7931 24.2558C21.8136 24.3718 21.801 24.4913 21.7569 24.6006C21.7127 24.7098 21.6388 24.8045 21.5434 24.8737C21.4481 24.943 21.3352 24.984 21.2177 24.9922C21.1001 25.0004 20.9826 24.9754 20.8786 24.92L15.4014 22.0402C15.0405 21.8507 14.6389 21.7517 14.2313 21.7517C13.8237 21.7517 13.4222 21.8507 13.0613 22.0402L7.58521 24.92C7.48123 24.975 7.36389 24.9998 7.24653 24.9914C7.12917 24.9831 7.01651 24.942 6.92136 24.8728C6.82621 24.8036 6.75239 24.7091 6.7083 24.6C6.66421 24.4909 6.65161 24.3717 6.67194 24.2558L7.71686 18.1606C7.78589 17.7582 7.75598 17.3451 7.62973 16.9568C7.50348 16.5685 7.28467 16.2168 6.99218 15.932L2.56105 11.6183C2.47635 11.5365 2.41634 11.4325 2.38784 11.3183C2.35933 11.2041 2.36349 11.0841 2.39983 10.9721C2.43618 10.8601 2.50324 10.7606 2.5934 10.6848C2.68355 10.6091 2.79316 10.5602 2.90975 10.5437L9.03576 9.64823C9.43933 9.58952 9.82259 9.43362 10.1525 9.19395C10.4825 8.95429 10.7493 8.63803 10.9299 8.2724L13.6685 2.72281Z" fill="#EF853B" stroke="#EF853B" stroke-width="2.37213" stroke-linecap="round" stroke-linejoin="round"/>
</svg>
