<svg width="51" height="52" viewBox="0 0 51 52" fill="none" xmlns="http://www.w3.org/2000/svg">
<path d="M4.92201 40.121H45.7706C48.4386 40.121 50.6237 37.982 50.6927 35.314H0.0117188C0.0692196 37.982 2.25397 40.121 4.92201 40.121Z" fill="#1F6F78"/>
<path d="M6.96915 23.4463C6.96915 18.8808 10.0397 14.7864 14.4213 13.5102L16.9398 12.7742C16.0083 11.2676 15.4563 9.49665 15.4563 7.58759C15.4563 7.15058 15.4793 6.71357 15.5368 6.28809H4.92207C2.20803 6.28809 0 8.49612 0 11.2216V33.0142H6.96914L6.96915 23.4463Z" fill="#1F6F78"/>
<path d="M45.7707 6.28857H35.1559C35.2134 6.71408 35.2364 7.15111 35.2364 7.58807C35.2364 9.48558 34.6844 11.2566 33.7529 12.7747L36.2715 13.5107C40.6646 14.7872 43.7236 18.8813 43.7236 23.4468V33.015H50.6927V11.2224C50.6927 8.4969 48.4847 6.28857 45.7707 6.28857Z" fill="#1F6F78"/>
<path d="M32.9859 46.9926V42.4126H17.7078V46.9926C16.2875 47.3433 15.2295 48.6198 15.2295 50.1494V51.7451H35.4668V50.1494C35.464 48.617 34.4062 47.3434 32.9859 46.9926Z" fill="#1F6F78"/>
<path d="M32.4072 24.1941C32.4072 24.9416 33.0053 25.5512 33.7527 25.5512C34.5002 25.5512 35.0982 24.9417 35.0982 24.1941C35.0982 23.8031 34.9257 23.4466 34.6612 23.2166C34.4197 22.9866 34.1092 22.8486 33.7527 22.8486C33.5457 22.8486 33.3387 22.8946 33.1662 22.9866C32.7177 23.2051 32.4072 23.6651 32.4072 24.1941Z" fill="#1F6F78"/>
<path d="M17.1701 23.0899C16.0086 23.0899 15.0656 24.0328 15.0656 25.1944V27.4944C15.0656 28.127 14.5596 28.6445 13.9156 28.6445C13.2831 28.6445 12.7656 28.127 12.7656 27.4944V25.1944C12.7656 23.2969 13.9845 21.6869 15.6751 21.0658C15.3416 19.7318 15.1461 17.5813 16.2846 15.3618L15.0656 15.7183C11.627 16.7188 9.26953 19.8698 9.26953 23.4464V32.8997H41.4244V23.4464C41.4244 19.8698 39.0668 16.7188 35.6283 15.7183L35.3868 15.6493C36.2608 18.0528 35.7548 20.5828 35.3868 21.8594C36.1228 22.3654 36.6058 23.2279 36.6058 24.1939C36.6058 25.7809 35.3292 27.0574 33.7537 27.0574C32.1782 27.0574 30.9017 25.7809 30.9017 24.1939C30.9017 22.8368 31.8447 21.6984 33.1212 21.4109C33.4547 20.3299 34.1562 17.3399 32.5807 15.2353L32.5117 15.1318C30.6602 16.9604 28.1301 18.0644 25.3471 18.0644C22.8515 18.0644 20.563 17.1789 18.7804 15.6724C17.3084 17.7309 17.6879 19.8699 17.9984 20.8704C20.0339 21.2614 21.575 23.0439 21.575 25.1945V27.4945C21.575 28.127 21.0575 28.6445 20.425 28.6445C19.781 28.6445 19.275 28.127 19.275 27.4945V25.1945C19.275 24.033 18.3317 23.0899 17.1701 23.0899Z" fill="#1F6F78"/>
<path d="M32.9363 7.58753C32.9363 11.7793 29.538 15.1773 25.3466 15.1773C21.1551 15.1773 17.7568 11.779 17.7568 7.58753C17.7568 3.3986 21.1551 0 25.3466 0C29.538 0 32.9363 3.39831 32.9363 7.58753Z" fill="#1F6F78"/>
</svg>
