<svg width="80" height="80" viewBox="0 0 80 80" fill="none" xmlns="http://www.w3.org/2000/svg">
<rect width="80" height="80" rx="40" fill="#1F6F78"/>
<path d="M60.312 34.0647C60.312 39.3224 58.2234 44.3647 54.5057 48.0824C50.788 51.8001 45.7457 53.8887 40.488 53.8887C35.2304 53.8887 30.188 51.8001 26.4703 48.0824C22.7526 44.3647 20.664 39.3224 20.664 34.0647C20.664 28.8071 22.7526 23.7648 26.4703 20.047C30.188 16.3293 35.2304 14.2407 40.488 14.2407C45.7457 14.2407 50.788 16.3293 54.5057 20.047C58.2234 23.7648 60.312 28.8071 60.312 34.0647Z" stroke="#FAFAF9" stroke-width="1.71429" stroke-linecap="round" stroke-linejoin="round"/>
<path d="M23.316 43.7888L14.5 59.0608L24.024 56.5088L26.58 66.0328L34.228 52.7848M57.684 43.7888L66.5 59.0608L56.972 56.5088L54.42 66.0328L46.772 52.7848M41.3 23.3008L44.032 28.7968C44.0913 28.9364 44.1874 29.0574 44.3099 29.1468C44.4324 29.2363 44.5769 29.2909 44.728 29.3048L50.796 30.2248C50.9696 30.247 51.1334 30.3183 51.2679 30.4303C51.4025 30.5422 51.5023 30.6903 51.5556 30.857C51.6089 31.0238 51.6136 31.2023 51.569 31.3716C51.5245 31.5409 51.4325 31.6939 51.304 31.8128L46.82 36.0688C46.7528 36.1957 46.7176 36.3372 46.7176 36.4808C46.7176 36.6244 46.7528 36.7659 46.82 36.8928L47.68 42.9248C47.7173 43.0996 47.7029 43.2815 47.6385 43.4482C47.5742 43.615 47.4626 43.7594 47.3175 43.8637C47.1724 43.9681 47 44.028 46.8215 44.036C46.6429 44.044 46.4659 43.9998 46.312 43.9088L40.912 41.0528C40.7724 40.9898 40.6211 40.9573 40.468 40.9573C40.3149 40.9573 40.1636 40.9898 40.024 41.0528L34.624 43.9088C34.4703 43.9973 34.2943 44.0395 34.1171 44.0303C33.94 44.0211 33.7693 43.9609 33.6256 43.8569C33.4818 43.7529 33.3713 43.6096 33.3071 43.4443C33.243 43.2789 33.228 43.0985 33.264 42.9248L34.28 36.8928C34.3241 36.753 34.3325 36.6044 34.3046 36.4605C34.2766 36.3166 34.2132 36.1819 34.12 36.0688L29.644 31.7768C29.5237 31.6565 29.4391 31.5052 29.3997 31.3397C29.3602 31.1742 29.3674 31.001 29.4205 30.8394C29.4735 30.6778 29.5703 30.534 29.7002 30.4241C29.83 30.3142 29.9878 30.2424 30.156 30.2168L36.22 29.3368C36.3711 29.3229 36.5156 29.2683 36.6381 29.1788C36.7606 29.0894 36.8567 28.9684 36.916 28.8288L39.648 23.3328C39.7207 23.1768 39.8357 23.0443 39.98 22.9504C40.1242 22.8566 40.2919 22.805 40.464 22.8017C40.6361 22.7984 40.8057 22.8434 40.9534 22.9316C41.1012 23.0198 41.2213 23.1477 41.3 23.3008Z" stroke="#FAFAF9" stroke-width="1.71429" stroke-linecap="round" stroke-linejoin="round"/>
</svg>
