<svg width="82" height="82" viewBox="0 0 82 82" fill="none" xmlns="http://www.w3.org/2000/svg">
<path d="M23.9179 50.6149L25.4788 48.9459L30.7068 53.8355L29.1459 55.5045L23.9179 50.6149ZM20.3025 63.5731L30.0149 53.1884L32.1546 55.1896L22.4422 65.5743L20.3025 63.5731ZM10.116 42.1011L9.6805 39.2139L18.97 37.8127C20.0515 37.6496 20.9973 37.7439 21.8076 38.0958C22.6168 38.4412 23.2693 38.9913 23.7651 39.7461C24.2598 40.4945 24.5863 41.3934 24.7446 42.4427C24.9029 43.492 24.857 44.4536 24.6069 45.3275C24.3559 46.195 23.8952 46.9163 23.2248 47.4915C22.5534 48.0602 21.6769 48.4261 20.5954 48.5893L11.306 49.9904L10.869 47.0935L20.1585 45.6923C20.7893 45.5972 21.2893 45.4197 21.6583 45.1599C22.0274 44.9002 22.2771 44.5695 22.4074 44.168C22.5368 43.76 22.5627 43.2985 22.485 42.7835C22.4054 42.2556 22.2446 41.8223 22.0025 41.4835C21.7595 41.1383 21.4239 40.8992 20.9956 40.7663C20.5664 40.6269 20.0363 40.6048 19.4054 40.7L10.116 42.1011ZM14.6131 24.9594L16.2433 23.0898L26.5119 27.1982L21.0441 17.5844L22.6744 15.7148L30.0149 28.9313L28.7056 30.4328L14.6131 24.9594ZM13.7338 25.9677L15.3576 24.1056L23.3222 30.4548L26.3694 33.1119L24.4503 35.3127L13.7338 25.9677ZM21.9298 16.5686L23.5601 14.6991L34.2766 24.0441L32.3512 26.2521L29.304 23.595L21.9298 16.5686ZM45.3745 20.8904L45.4649 23.1737L37.9025 23.473L37.8121 21.1896L45.3745 20.8904ZM38.2965 9.22753L38.8587 23.4352L35.9314 23.551L35.3691 9.34338L38.2965 9.22753ZM44.1461 14.7916L44.2341 17.0164L37.6573 17.2767L37.5692 15.0519L44.1461 14.7916ZM44.8929 8.96649L44.9837 11.2596L37.431 11.5585L37.3402 9.26538L44.8929 8.96649ZM64.6423 20.1808L55.7026 31.2377L53.4244 29.3958L54.9744 18.3922L48.9819 25.8039L46.7037 23.962L55.6433 12.9051L57.9215 14.747L56.373 25.7644L62.3716 18.345L64.6423 20.1808ZM65.1404 36.2405L63.0161 36.8391L61.5196 31.5283L63.6439 30.9297L65.1404 36.2405ZM71.6462 44.9491L70.0007 49.9901C69.6633 51.0237 69.2187 51.8613 68.6668 52.5029C68.1129 53.1508 67.467 53.5769 66.7292 53.7812C65.9913 53.9855 65.1799 53.9432 64.2949 53.6543C63.5708 53.4179 62.9892 53.0911 62.5501 52.6738C62.1152 52.2648 61.7972 51.7809 61.5961 51.2221C61.3991 50.6716 61.2955 50.0659 61.2852 49.4051L61.1089 48.3716L62.5392 43.9898L64.7177 44.6804L63.654 47.9389C63.4944 48.4278 63.4487 48.8615 63.5169 49.2399C63.5852 49.6183 63.7478 49.9384 64.0047 50.2004C64.2596 50.4685 64.5913 50.6692 64.9998 50.8026C65.433 50.944 65.8337 50.9857 66.2019 50.9279C66.57 50.87 66.8912 50.7043 67.1654 50.4308C67.4395 50.1574 67.6574 49.7731 67.8191 49.2779L68.5555 47.022L57.2203 43.3219L58.1294 40.5369L71.6462 44.9491ZM55.6626 48.0937L62.6937 46.9783L61.7517 49.9272L54.8198 51.1161L54.6899 51.0737L55.6626 48.0937ZM54.3125 64.9732L51.8652 52.8117L54.5754 51.2757L56.9898 66.2509L55.2651 67.2284L54.3125 64.9732ZM45.7056 56.3026L54.8903 64.6458L56.3611 66.6072L54.6194 67.5943L42.9868 57.8434L45.7056 56.3026ZM48.4683 60.8208L47.3367 58.8242L53.8702 55.1215L55.0017 57.118L48.4683 60.8208Z" fill="#1F6F78"/>
</svg>
