<svg width="24" height="24" viewBox="0 0 24 24" fill="none" xmlns="http://www.w3.org/2000/svg">
<path d="M9.53959 15.23C7.94093 15.23 6.58593 14.6747 5.47459 13.564C4.36393 12.454 3.80859 11.0994 3.80859 9.50002C3.80859 7.90069 4.36393 6.54569 5.47459 5.43502C6.58526 4.32435 7.94026 3.76935 9.53959 3.77002C11.1389 3.77069 12.4936 4.32602 13.6036 5.43602C14.7136 6.54602 15.2689 7.90069 15.2696 9.50002C15.2696 10.1947 15.1466 10.867 14.9006 11.517C14.6546 12.167 14.3313 12.723 13.9306 13.185L19.8396 19.092C19.9329 19.1854 19.9829 19.3004 19.9896 19.437C19.9956 19.5724 19.9456 19.6934 19.8396 19.8C19.7329 19.9067 19.6149 19.96 19.4856 19.96C19.3563 19.96 19.2383 19.9067 19.1316 19.8L13.2236 13.892C12.7236 14.318 12.1486 14.6477 11.4986 14.881C10.8486 15.1144 10.1953 15.231 9.53859 15.231M9.53859 14.231C10.8653 14.231 11.9856 13.7744 12.8996 12.861C13.8129 11.9477 14.2696 10.8274 14.2696 9.50002C14.2696 8.17269 13.8133 7.05269 12.9006 6.14002C11.9879 5.22735 10.8679 4.77069 9.54059 4.77002C8.21326 4.77002 7.09293 5.22669 6.17959 6.14002C5.26626 7.05335 4.80926 8.17335 4.80859 9.50002C4.80793 10.8267 5.26459 11.9467 6.17859 12.86C7.09259 13.7734 8.21259 14.23 9.53859 14.23" fill="#FAFAF9"/>
</svg>
