<svg width="186" height="150" viewBox="0 0 186 150" fill="none" xmlns="http://www.w3.org/2000/svg">
<g clip-path="url(#clip0_600_983)">
<path d="M9.70563 55.6831C7.13154 55.6831 4.66287 56.7068 2.84271 58.5289C1.02255 60.3511 0 62.8225 0 65.3994C0 67.9763 1.02255 70.4476 2.84271 72.2698C4.66287 74.092 7.13154 75.1156 9.70563 75.1156H82.0361C84.6102 75.1156 87.0789 74.092 88.899 72.2698C90.7192 70.4476 91.7417 67.9763 91.7417 65.3994C91.7417 62.8225 90.7192 60.3511 88.899 58.5289C87.0789 56.7068 84.6102 55.6831 82.0361 55.6831H9.70563Z" fill="#808589"/>
<path d="M9.70627 57.6494C7.65311 57.6494 5.68406 58.4659 4.23226 59.9193C2.78046 61.3727 1.96484 63.3439 1.96484 65.3993C1.96484 67.4547 2.78046 69.4259 4.23226 70.8793C5.68406 72.3327 7.65311 73.1492 9.70627 73.1492H82.0363C84.0894 73.1492 86.0585 72.3327 87.5103 70.8793C88.9621 69.4259 89.7777 67.4547 89.7777 65.3993C89.7777 63.3439 88.9621 61.3727 87.5103 59.9193C86.0585 58.4659 84.0894 57.6494 82.0363 57.6494H9.70627Z" fill="#FAFAF9"/>
<path d="M25.6823 70.0327H11.2913C11.245 70.0339 11.199 70.0259 11.1559 70.009C11.1128 69.9921 11.0735 69.9668 11.0403 69.9345C11.0071 69.9021 10.9808 69.8635 10.9628 69.8209C10.9448 69.7782 10.9355 69.7324 10.9355 69.6861C10.9355 69.6398 10.9448 69.594 10.9628 69.5513C10.9808 69.5087 11.0071 69.4701 11.0403 69.4378C11.0735 69.4055 11.1128 69.3801 11.1559 69.3632C11.199 69.3464 11.245 69.3383 11.2913 69.3395H25.6823C25.7726 69.3418 25.8585 69.3794 25.9216 69.4441C25.9847 69.5089 26.02 69.5957 26.02 69.6861C26.02 69.7765 25.9847 69.8634 25.9216 69.9281C25.8585 69.9929 25.7726 70.0304 25.6823 70.0327Z" fill="#1F6F78"/>
<path d="M43.9388 70.1484H29.5478C29.4559 70.1484 29.3677 70.1118 29.3027 70.0468C29.2377 69.9818 29.2012 69.8937 29.2012 69.8017C29.2012 69.7098 29.2377 69.6216 29.3027 69.5566C29.3677 69.4916 29.4559 69.4551 29.5478 69.4551H43.9388C44.0307 69.4551 44.1189 69.4916 44.1839 69.5566C44.2489 69.6216 44.2854 69.7098 44.2854 69.8017C44.2854 69.8937 44.2489 69.9818 44.1839 70.0468C44.1189 70.1118 44.0307 70.1484 43.9388 70.1484Z" fill="#1F6F78"/>
<path d="M62.1936 70.2641H47.8026C47.7122 70.2617 47.6263 70.2242 47.5632 70.1594C47.5001 70.0947 47.4648 70.0079 47.4648 69.9174C47.4648 69.827 47.5001 69.7402 47.5632 69.6754C47.6263 69.6107 47.7122 69.5731 47.8026 69.5708H62.1936C62.2855 69.5708 62.3737 69.6073 62.4387 69.6723C62.5037 69.7373 62.5402 69.8255 62.5402 69.9174C62.5402 70.0094 62.5037 70.0975 62.4387 70.1625C62.3737 70.2276 62.2855 70.2641 62.1936 70.2641Z" fill="#1F6F78"/>
<path d="M80.4498 70.3798H66.0588C65.9669 70.3798 65.8787 70.3433 65.8137 70.2783C65.7487 70.2133 65.7122 70.1251 65.7122 70.0332C65.7122 69.9412 65.7487 69.8531 65.8137 69.788C65.8787 69.723 65.9669 69.6865 66.0588 69.6865H80.4498C80.5402 69.6889 80.626 69.7264 80.6891 69.7912C80.7522 69.8559 80.7875 69.9427 80.7875 70.0332C80.7875 70.1236 80.7522 70.2104 80.6891 70.2752C80.626 70.3399 80.5402 70.3775 80.4498 70.3798Z" fill="#1F6F78"/>
<path d="M18.456 66.8398C19.9333 66.8398 21.1308 65.641 21.1308 64.1621C21.1308 62.6832 19.9333 61.4844 18.456 61.4844C16.9788 61.4844 15.7812 62.6832 15.7812 64.1621C15.7812 65.641 16.9788 66.8398 18.456 66.8398Z" fill="#1F6F78"/>
<path d="M36.822 66.8398C38.2993 66.8398 39.4968 65.641 39.4968 64.1621C39.4968 62.6832 38.2993 61.4844 36.822 61.4844C35.3448 61.4844 34.1472 62.6832 34.1472 64.1621C34.1472 65.641 35.3448 66.8398 36.822 66.8398Z" fill="#1F6F78"/>
<path d="M55.1865 66.8398C56.6638 66.8398 57.8613 65.641 57.8613 64.1621C57.8613 62.6832 56.6638 61.4844 55.1865 61.4844C53.7093 61.4844 52.5117 62.6832 52.5117 64.1621C52.5117 65.641 53.7093 66.8398 55.1865 66.8398Z" fill="#1F6F78"/>
<path d="M73.553 66.8398C75.0302 66.8398 76.2278 65.641 76.2278 64.1621C76.2278 62.6832 75.0302 61.4844 73.553 61.4844C72.0757 61.4844 70.8782 62.6832 70.8782 64.1621C70.8782 65.641 72.0757 66.8398 73.553 66.8398Z" fill="#1F6F78"/>
<path d="M83.3751 140.096C83.1026 140.096 82.8323 140.048 82.5763 139.954L65.2265 133.642C64.7455 133.467 64.3349 133.139 64.0577 132.708C63.7805 132.278 63.6519 131.768 63.6916 131.257C63.7313 130.746 63.9371 130.262 64.2775 129.88C64.618 129.497 65.0742 129.237 65.5765 129.138L113.493 119.747C113.881 119.671 114.282 119.695 114.658 119.815L128.046 124.11C128.529 124.265 128.949 124.573 129.243 124.988C129.536 125.402 129.687 125.901 129.673 126.409C129.658 126.917 129.48 127.406 129.163 127.803C128.847 128.201 128.411 128.485 127.919 128.612L83.9636 140.021C83.7714 140.071 83.5737 140.096 83.3751 140.096Z" fill="#1E1E1E"/>
<path d="M118.465 118.015L143.629 121.042L139.041 129.9L116.855 126.676C115.029 127.973 112.49 128.55 109.85 128.059C105.232 127.198 102.064 123.4 102.776 119.573C103.487 115.746 107.808 113.343 112.426 114.204C115.065 114.694 117.227 116.147 118.465 118.015Z" fill="#EF853B"/>
<path d="M153.407 46.9336C152.44 43.3564 150.502 40.1173 147.808 37.5761C145.114 35.0349 141.768 33.291 138.144 32.5379C134.519 31.7849 130.757 32.0522 127.275 33.3103C123.794 34.5683 120.728 36.7678 118.419 39.6645C116.111 42.5612 114.649 46.0418 114.197 49.7199C113.745 53.3979 114.32 57.1294 115.858 60.5001C117.396 63.8708 119.837 66.7488 122.911 68.8145C125.984 70.8802 129.569 72.0527 133.268 72.202L143.681 95.9192L158.443 74.8678C158.443 74.8678 152.91 70.7329 149.104 65.4119C151.292 62.928 152.829 59.9399 153.58 56.7152C154.331 53.4904 154.271 50.1296 153.407 46.9336Z" fill="#EF853B"/>
<path d="M173.663 88.3363C172.342 85.0755 170.085 82.2799 167.177 80.3025C164.27 78.325 160.842 77.2544 157.327 77.2259C148.259 77.1384 136.717 79.5123 136.241 92.0582C135.453 112.831 136.241 104.47 136.241 104.47C136.241 104.47 129.981 120.074 136.241 127.601C142.501 135.127 147.959 149.962 147.959 149.962H185.999C185.999 149.962 179.432 132.588 180.561 120.734C181.326 112.688 177.675 98.2701 173.663 88.3372L173.663 88.3363Z" fill="#D1D5DB"/>
<path d="M184.546 85.2679C183.504 87.1487 180.495 87.0422 179.01 85.4877C177.525 83.9333 177.277 81.5634 177.51 79.4255C177.743 77.2875 178.372 75.1849 178.329 73.0349C178.246 68.9316 183.592 75.6372 180.846 72.59C178.1 69.5429 174.96 66.7437 173.084 63.0948L172.857 62.8622C173.659 60.2117 171.714 57.5041 169.526 55.8111C167.338 54.118 164.714 52.8248 163.22 50.4938C161.949 48.5112 161.692 46.0732 161.136 43.783C158.98 34.9137 151.528 27.5566 142.64 25.5218C133.751 23.4869 123.846 26.8712 118.054 33.9209L118.193 33.6287C116.311 34.0379 114.578 34.9586 113.184 36.2896C111.79 37.6206 110.789 39.3104 110.292 41.1735C110.02 42.2528 109.93 43.4133 110.292 44.4661C110.654 45.519 111.535 46.4382 112.633 46.6125C113.811 46.7986 114.989 46.1057 115.715 45.1581C116.441 44.2105 116.803 43.0409 117.151 41.8996C117.838 44.3039 119.15 46.4823 120.954 48.2116C122.758 49.941 124.989 51.1591 127.418 51.7413C127.333 52.3981 127.427 53.0657 127.689 53.6736C127.952 54.2816 128.374 54.8072 128.91 55.1951C129.446 55.5829 130.077 55.8186 130.736 55.8772C131.395 55.9358 132.058 55.8151 132.654 55.5279L132.933 55.2617L137.046 55.4479C135.941 56.9559 135.153 58.6731 134.731 60.4952C134.309 62.3173 134.262 64.2063 134.592 66.0474C134.921 67.8884 135.622 69.6432 136.65 71.205C137.678 72.7669 139.012 74.1032 140.572 75.1328C143.056 76.7722 145.99 77.5604 148.872 78.2971C151.755 79.0337 152.606 84.2004 156.397 88.6878C156.197 93.7868 159.976 98.7621 164.94 99.928L163.577 104.506C166.338 103.523 169.36 104.418 172.274 104.715C175.188 105.012 178.722 104.305 179.842 101.595C181.033 98.7133 178.759 95.6582 176.644 93.369C180.95 93.799 185.078 89.5668 184.548 85.2679H184.546Z" fill="#1E1E1E"/>
<path d="M109.678 132.181L134.182 138.661L128.416 146.798L106.888 140.535C104.9 141.567 102.305 141.787 99.759 140.935C95.3037 139.444 92.6914 135.243 93.9241 131.552C95.1568 127.86 99.768 126.078 104.224 127.569C106.77 128.421 108.709 130.16 109.679 132.181L109.678 132.181Z" fill="#EF853B"/>
<path d="M158.442 104.47C158.442 104.47 157.373 151.531 142.043 149.961C126.712 148.392 121.639 146.416 121.639 146.416C121.639 146.416 118.538 134.563 123.894 134.28C129.249 133.998 136.24 132.678 136.24 132.678V98.5464" fill="#D1D5DB"/>
<path d="M113.929 20.5249C112.93 20.9437 111.884 20.4848 111.447 19.4351C111.002 18.3695 111.418 17.2876 112.434 16.8627C113.45 16.4379 114.476 16.8972 114.928 17.9795C115.373 19.0468 114.961 20.093 113.929 20.5249ZM112.013 14.765L111.217 15.0975C111.018 15.1797 110.796 15.1841 110.594 15.11C110.392 15.0359 110.226 14.8886 110.127 14.6973L110.088 14.6203C109.232 13.075 109.135 11.1969 109.798 9.04106C110.413 7.10716 110.669 5.74701 110.155 4.51483C109.561 3.09023 108.292 2.64398 106.674 3.29032C106.046 3.55276 105.846 3.54858 105.353 4.03903C105.245 4.14699 105.117 4.23219 104.976 4.28955C104.835 4.34691 104.684 4.37526 104.532 4.3729C104.385 4.37116 104.239 4.33977 104.104 4.28061C103.97 4.22145 103.848 4.13573 103.747 4.02856C103.553 3.82201 103.444 3.54928 103.442 3.26543C103.441 2.98158 103.547 2.70776 103.74 2.49927C104.57 1.62938 105.571 0.941183 106.68 0.478116C110.157 -0.9751 111.907 1.17053 112.708 3.09046C113.491 4.96852 113.05 6.71117 112.342 8.96778C111.749 10.843 111.784 12.2325 112.458 13.6141C112.507 13.7185 112.534 13.8317 112.538 13.9469C112.542 14.0621 112.522 14.1769 112.481 14.2844C112.439 14.3919 112.376 14.4898 112.296 14.5724C112.216 14.655 112.12 14.7204 112.013 14.7648L112.013 14.765Z" fill="#1F6F78"/>
</g>
<defs>
<clipPath id="clip0_600_983">
<rect width="186" height="150" fill="white"/>
</clipPath>
</defs>
</svg>
